<svg xmlns="http://www.w3.org/2000/svg" width="19.644" height="19.644" viewBox="0 0 19.644 19.644">
  <path id="Icon_awesome-headset" data-name="Icon awesome-headset" d="M7.367,7.98A1.228,1.228,0,0,0,6.139,6.753H5.525A2.455,2.455,0,0,0,3.069,9.208V11.05a2.455,2.455,0,0,0,2.456,2.456h.614a1.228,1.228,0,0,0,1.228-1.228Zm6.753,5.525a2.455,2.455,0,0,0,2.456-2.456V9.208a2.455,2.455,0,0,0-2.456-2.456h-.614A1.228,1.228,0,0,0,12.278,7.98v4.3a1.228,1.228,0,0,0,1.228,1.228ZM9.822,0A10.009,10.009,0,0,0,0,9.822v.614a.614.614,0,0,0,.614.614h.614a.614.614,0,0,0,.614-.614V9.822a7.98,7.98,0,1,1,15.961,0h0c0,.093,0,6.358,0,6.358A1.622,1.622,0,0,1,16.18,17.8h-3.9a1.842,1.842,0,0,0-1.842-1.842H9.208a1.842,1.842,0,0,0,0,3.683H16.18a3.464,3.464,0,0,0,3.464-3.464V9.822A10.009,10.009,0,0,0,9.822,0Z" fill="#c987cc"/>
</svg>
