<svg xmlns="http://www.w3.org/2000/svg" width="24" height="24" viewBox="0 0 24 24">
  <path id="Icon_awesome-plus" data-name="Icon awesome-plus" d="M22.286,11.679H14.571V3.964A1.714,1.714,0,0,0,12.857,2.25H11.143A1.714,1.714,0,0,0,9.429,3.964v7.714H1.714A1.714,1.714,0,0,0,0,13.393v1.714a1.714,1.714,0,0,0,1.714,1.714H9.429v7.714a1.715,1.715,0,0,0,1.714,1.714h1.714a1.715,1.715,0,0,0,1.714-1.714V16.821h7.714A1.714,1.714,0,0,0,24,15.107V13.393A1.714,1.714,0,0,0,22.286,11.679Z" transform="translate(0 -2.25)"/>
</svg>
